<svg width="9" height="9" viewBox="0 0 9 9" xmlns="http://www.w3.org/2000/svg">
<path d="M5.32455 4.50743L8.82897 1.0029C9.05703 0.77494 9.05703 0.406368 8.82897 0.178413C8.60102 -0.0495425 8.23244 -0.0495425 8.00449 0.178413L4.49996 3.68294L0.99553 0.178413C0.767467 -0.0495425 0.399002 -0.0495425 0.171047 0.178413C-0.0570155 0.406368 -0.0570155 0.77494 0.171047 1.0029L3.67547 4.50743L0.171047 8.01196C-0.0570155 8.23991 -0.0570155 8.60848 0.171047 8.83644C0.284651 8.95015 0.434023 9.00727 0.583288 9.00727C0.732553 9.00727 0.881819 8.95015 0.99553 8.83644L4.49996 5.33191L8.00449 8.83644C8.1182 8.95015 8.26746 9.00727 8.41673 9.00727C8.566 9.00727 8.71526 8.95015 8.82897 8.83644C9.05703 8.60848 9.05703 8.23991 8.82897 8.01196L5.32455 4.50743Z"/>
</svg>
