<svg width="13" height="12" viewBox="0 0 13 12" xmlns="http://www.w3.org/2000/svg">
<path d="M11.9002 1.01298C10.4751 -0.340264 8.19815 -0.340264 6.773 1.01298L0.796753 6.81106C-0.283824 7.88349 -0.261771 9.60313 0.843615 10.6515C1.93246 11.6811 3.6691 11.6811 4.75519 10.6515L10.1663 5.40166C10.8693 4.71969 10.8693 3.61249 10.1663 2.93052C9.46342 2.24855 8.3222 2.24855 7.61927 2.93052L2.44243 7.95303C2.26325 8.13489 2.26601 8.42372 2.45345 8.59756C2.63539 8.76872 2.92483 8.76872 3.10676 8.59756L8.28085 3.57772C8.62266 3.25947 9.16847 3.27017 9.4965 3.60179C9.81626 3.92539 9.81626 4.43353 9.4965 4.75713L4.09086 10.007C3.36037 10.705 2.18331 10.697 1.46384 9.98824C0.749891 9.28755 0.749891 8.15895 1.46384 7.45559L7.43734 1.66018C8.50138 0.627866 10.227 0.627866 11.291 1.66018C12.3551 2.6925 12.3551 4.36667 11.291 5.39898L5.31753 11.1944C5.11906 11.3575 5.09701 11.6464 5.26516 11.8389C5.43331 12.0315 5.73102 12.0529 5.92949 11.8897C5.94879 11.8737 5.96533 11.8576 5.98187 11.8389L11.9554 6.04351C13.3722 4.63945 13.3474 2.38762 11.9002 1.01298Z"/>
</svg>
