<svg width="9" height="9" viewBox="0 0 9 9" xmlns="http://www.w3.org/2000/svg">
<path d="M7.92788 0.793476L2.45688 0.793474C2.12308 0.793474 1.8524 1.06415 1.8524 1.39795C1.8524 1.73182 2.12301 2.00243 2.45688 2.00243H6.46856L1.16292 7.30807C0.926879 7.54411 0.926879 7.92688 1.16292 8.16292C1.39892 8.39892 1.78172 8.39896 2.01776 8.16292L7.32341 2.85728L7.32347 6.86889C7.32347 7.20276 7.59408 7.47337 7.92795 7.47337C8.09478 7.47334 8.24599 7.4057 8.35538 7.29632C8.46476 7.18693 8.53236 7.03576 8.53243 6.86889L8.53236 1.39795C8.53236 1.06409 8.26175 0.793476 7.92788 0.793476Z"/>
</svg>
