<svg width="13" height="13" viewBox="0 0 13 13" xmlns="http://www.w3.org/2000/svg">
<path d="M12.6574 9.5421L10.8391 7.72727C10.1898 7.07929 9.08663 7.33747 8.82541 8.18034C8.63013 8.76251 7.98089 9.0865 7.39759 8.95741C6.09911 8.63342 4.34667 6.94767 4.02206 5.58844C3.82678 5.00628 4.21733 4.3583 4.80064 4.1634C5.64515 3.90523 5.90383 2.80164 5.2546 2.15367L3.43622 0.338831C2.91632 -0.114246 2.13774 -0.114246 1.68378 0.338831L0.451239 1.5715C-0.781301 2.86745 0.583116 6.30223 3.63403 9.3472C6.68495 12.3922 10.1264 13.8172 11.4249 12.5213L12.6574 11.2911C13.1114 10.7722 13.1114 9.99518 12.6574 9.5421Z"/>
</svg>
