<svg width="16" height="16" viewBox="0 0 16 16" xmlns="http://www.w3.org/2000/svg">
<path d="M4.65896 8.19824C4.65896 7.76739 4.35979 7.51025 3.83183 7.51025C3.61647 7.51025 3.47056 7.53102 3.39404 7.55185V8.93535C3.4845 8.95589 3.5957 8.96292 3.7482 8.96292C4.31148 8.96292 4.65896 8.67798 4.65896 8.19824Z"/>
<path d="M7.92663 7.52417C7.69003 7.52417 7.53747 7.545 7.44678 7.56585V10.6311C7.53729 10.6523 7.68329 10.6523 7.8154 10.6523C8.77449 10.659 9.40011 10.131 9.40011 9.01183C9.40714 8.03833 8.83701 7.52417 7.92663 7.52417Z"/>
<path d="M14.188 5.72313H13.8038V3.86936C13.8038 3.8578 13.8019 3.84615 13.8004 3.83444C13.7998 3.76084 13.7764 3.68853 13.726 3.63125L10.6411 0.107306C10.6402 0.106405 10.6393 0.106086 10.6386 0.105098C10.6202 0.0845605 10.5988 0.0674799 10.5761 0.0526942C10.5694 0.0481916 10.5627 0.0444153 10.5556 0.0405228C10.536 0.0298039 10.5152 0.020915 10.4937 0.0144953C10.4879 0.0128685 10.4827 0.0104865 10.4769 0.00897602C10.4536 0.00345678 10.4294 0 10.4049 0H2.82341C2.47721 0 2.19596 0.281568 2.19596 0.627479V5.72298H1.81185C1.31661 5.72298 0.915039 6.12437 0.915039 6.6198V11.2834C0.915039 11.7785 1.31661 12.1801 1.81185 12.1801H2.19599V15.3725C2.19599 15.7184 2.47724 16 2.82344 16H13.1763C13.5222 16 13.8038 15.7184 13.8038 15.3725V12.1801H14.188C14.6831 12.1801 15.0847 11.7785 15.0847 11.2834V6.61994C15.0847 6.12455 14.6831 5.72313 14.188 5.72313ZM2.82341 0.627595H10.0912V3.83784C10.0912 4.01118 10.2318 4.15157 10.4049 4.15157H13.1763V5.72333H2.82341V0.627595ZM10.5259 8.97669C10.5259 9.87359 10.1993 10.492 9.74681 10.8745C9.25383 11.2846 8.50296 11.4791 7.58572 11.4791C7.0367 11.4791 6.64754 11.4444 6.38308 11.4097V6.80798C6.7723 6.74555 7.28004 6.71078 7.81529 6.71078C8.70452 6.71078 9.2816 6.87078 9.73363 7.21117C10.22 7.57268 10.5259 8.1495 10.5259 8.97669ZM2.34411 11.4306V6.80798C2.67065 6.75267 3.12964 6.71078 3.77609 6.71078C4.42942 6.71078 4.89524 6.83592 5.20792 7.08632C5.50689 7.32251 5.70799 7.71185 5.70799 8.17065C5.70799 8.62958 5.55549 9.01881 5.27723 9.28277C4.91581 9.62345 4.38065 9.77648 3.75488 9.77648C3.61609 9.77648 3.49054 9.76942 3.39366 9.75548V11.4307H2.34411V11.4306ZM13.1763 15.2027H2.82341V12.1801H13.1763V15.2027H13.1763ZM14.0855 7.61442H12.2848V8.68489H13.9671V9.54688H12.2848V11.4306H11.2218V6.74555H14.0855V7.61442Z"/>
</svg>
