<svg width="12" height="10" viewBox="0 0 12 10" xmlns="http://www.w3.org/2000/svg">
<path d="M8.3313 2.15736L11.7163 5.5961C11.9229 5.80595 11.9229 6.14613 11.7163 6.35598L8.33138 9.79472C8.2281 9.89956 8.09274 9.95209 7.95738 9.95209C7.82202 9.95209 7.68662 9.89956 7.58338 9.79472C7.37681 9.58487 7.37681 9.24469 7.58338 9.03485L10.0654 6.51334L-3.94569e-07 6.51334L-3.00624e-07 5.43873L10.0654 5.43873L7.58329 2.91723C7.37672 2.70738 7.37672 2.3672 7.58329 2.15736C7.78982 1.94755 8.12477 1.94755 8.3313 2.15736Z"/>
<path d="M0 0.5C0 0.223858 0.223858 0 0.5 0C0.776142 0 1 0.223858 1 0.5V6H0V0.5Z"/>
</svg>
