<svg width="13" height="15" viewBox="0 0 13 15" fill="none" xmlns="http://www.w3.org/2000/svg">
<path d="M11.5259 13.8594L11.5259 13.8594C11.6751 14.0143 11.8763 14.1 12.0913 14.1C12.2949 14.1 12.4884 14.0223 12.6351 13.8811C12.9469 13.581 12.9569 13.0837 12.6568 12.7716L12.5847 12.8409L12.6568 12.7716L9.62461 9.61799C10.3988 8.66584 10.8221 7.48097 10.8221 6.24874C10.8221 3.2994 8.42269 0.9 5.47335 0.9C2.52401 0.9 0.124609 3.2994 0.124609 6.24874C0.124609 9.19809 2.52401 11.5975 5.47335 11.5975C6.55163 11.5975 7.58097 11.2806 8.4673 10.6783L11.5259 13.8594ZM5.47335 2.46924C7.55733 2.46924 9.25286 4.16477 9.25286 6.24874C9.25286 8.33272 7.55733 10.0283 5.47335 10.0283C3.38938 10.0283 1.69385 8.33272 1.69385 6.24874C1.69385 4.16477 3.38938 2.46924 5.47335 2.46924Z" fill="currentColor" stroke="currentColor" stroke-width="0.2"/>
</svg>
