<svg width="14" height="8" viewBox="0 0 14 8" xmlns="http://www.w3.org/2000/svg">
<path d="M0.879781 4.4039L4.26479 7.84265C4.47132 8.05245 4.80627 8.05245 5.0128 7.84265C5.21937 7.6328 5.21937 7.29262 5.0128 7.08277L2.53069 4.56127L12.5961 4.56127C12.8882 4.56127 13.125 4.32068 13.125 4.02396C13.125 3.72728 12.8882 3.48666 12.5961 3.48666L2.53069 3.48666L5.01271 0.965156C5.21928 0.755307 5.21928 0.415128 5.01271 0.205279C4.90947 0.10044 4.77407 0.0479138 4.63871 0.0479138C4.50335 0.0479138 4.36799 0.10044 4.26471 0.205279L0.879781 3.64402C0.673211 3.85387 0.673211 4.19405 0.879781 4.4039Z"/>
</svg>
