<svg width="15" height="13" viewBox="0 0 15 13" xmlns="http://www.w3.org/2000/svg">
<path d="M13.4581 3.44472C13.4676 3.57796 13.4676 3.71123 13.4676 3.84448C13.4676 7.90854 10.3744 12.5913 4.72081 12.5913C2.97905 12.5913 1.36104 12.0868 0 11.2112C0.247471 11.2398 0.485391 11.2493 0.742383 11.2493C2.17954 11.2493 3.50253 10.7639 4.559 9.93585C3.20748 9.90729 2.07486 9.02214 1.68463 7.80386C1.875 7.8324 2.06534 7.85144 2.26523 7.85144C2.54124 7.85144 2.81728 7.81335 3.07424 7.74676C1.66561 7.4612 0.609111 6.22391 0.609111 4.72962V4.69157C1.01836 4.91999 1.49429 5.06276 1.99869 5.08177C1.17064 4.52973 0.628154 3.58748 0.628154 2.52149C0.628154 1.95043 0.78041 1.42696 1.04692 0.970102C2.56025 2.83558 4.83501 4.05383 7.38574 4.1871C7.33816 3.95868 7.3096 3.72076 7.3096 3.48281C7.3096 1.78863 8.68017 0.408569 10.3838 0.408569C11.269 0.408569 12.0685 0.779761 12.63 1.37938C13.3248 1.24614 13.991 0.989145 14.5812 0.636997C14.3527 1.35084 13.8673 1.95046 13.2296 2.33115C13.8483 2.26456 14.4479 2.0932 14.9999 1.85528C14.5812 2.46439 14.0577 3.00688 13.4581 3.44472Z"/>
</svg>
