<svg width="17" height="11" viewBox="0 0 17 11" xmlns="http://www.w3.org/2000/svg">
<path d="M16.6126 1.178C16.7293 0.787378 16.6126 0.499878 16.0508 0.499878H14.192C13.7186 0.499878 13.5009 0.746753 13.3841 1.02175C13.3841 1.02175 12.4373 3.30613 11.0992 4.78738C10.6669 5.2155 10.4681 5.353 10.2314 5.353C10.1146 5.353 9.93472 5.2155 9.93472 4.82488V1.178C9.93472 0.709253 9.80217 0.499878 9.41084 0.499878H6.48849C6.19184 0.499878 6.01511 0.718628 6.01511 0.921753C6.01511 1.3655 6.68416 1.46863 6.75359 2.71863V5.43113C6.75359 6.02488 6.64629 6.13425 6.4096 6.13425C5.77842 6.13425 4.24466 3.8405 3.33577 1.2155C3.15273 0.706128 2.97284 0.499878 2.4963 0.499878H0.637488C0.1073 0.499878 0 0.746753 0 1.02175C0 1.50925 0.631176 3.93113 2.93813 7.13113C4.47504 9.3155 6.63998 10.4999 8.60925 10.4999C9.7927 10.4999 9.93787 10.2374 9.93787 9.78425C9.93787 7.69675 9.83057 7.49988 10.4239 7.49988C10.6984 7.49988 11.1718 7.63738 12.2764 8.6905C13.5387 9.9405 13.747 10.4999 14.4539 10.4999H16.3128C16.8429 10.4999 17.1112 10.2374 16.9566 9.71863C16.6031 8.628 14.2141 6.38425 14.1068 6.23425C13.8322 5.88425 13.9111 5.728 14.1068 5.4155C14.1099 5.41238 16.379 2.24988 16.6126 1.178Z"/>
</svg>
