<svg width="1244" height="172" viewBox="0 0 1244 172" fill="none" xmlns="http://www.w3.org/2000/svg">
<g clip-path="url(#clip0)">
<path fill-rule="evenodd" clip-rule="evenodd" d="M499.506 223.285C408.248 116.211 355.414 -24.9321 355.414 -180.676C360.217 -394.825 461.081 -579.771 624.385 -696.579C782.886 -579.771 888.554 -394.825 888.554 -180.676C888.554 -166.075 888.554 -151.474 888.554 -141.74C869.341 -151.474 845.326 -161.208 826.114 -166.075C826.114 -170.942 826.114 -175.809 826.114 -180.676C826.114 -355.889 749.265 -511.633 624.385 -613.84C499.506 -511.633 422.657 -355.889 422.657 -180.676C422.657 -39.5331 470.687 87.009 552.339 184.349C537.93 198.95 518.718 213.551 499.506 223.285ZM624.385 -594.372C513.915 -492.165 441.869 -346.155 441.869 -180.676C441.869 -44.4001 489.9 77.275 571.552 174.615C585.961 160.014 600.37 150.28 614.779 130.812L619.582 125.945L614.779 121.078C547.536 38.3389 509.112 -68.7352 509.112 -180.676C509.112 -302.351 552.339 -419.16 629.188 -501.899C701.234 -419.16 749.265 -307.219 749.265 -185.543C768.477 -180.676 792.492 -175.809 811.705 -170.942C811.705 -175.809 811.705 -175.809 811.705 -180.676C806.902 -346.155 734.856 -492.165 624.385 -594.372Z" fill="white"/>
<path fill-rule="evenodd" clip-rule="evenodd" d="M499.506 223.285C408.248 116.211 355.414 -24.9321 355.414 -180.676C360.217 -394.825 461.081 -579.771 624.385 -696.579C782.886 -579.771 888.554 -394.825 888.554 -180.676C888.554 -166.075 888.554 -151.474 888.554 -141.74C869.341 -151.474 845.326 -161.208 826.114 -166.075C826.114 -170.942 826.114 -175.809 826.114 -180.676C826.114 -355.889 749.265 -511.633 624.385 -613.84C499.506 -511.633 422.657 -355.889 422.657 -180.676C422.657 -39.5331 470.687 87.009 552.339 184.349C537.93 198.95 518.718 213.551 499.506 223.285ZM624.385 -594.372C513.915 -492.165 441.869 -346.155 441.869 -180.676C441.869 -44.4001 489.9 77.275 571.552 174.615C585.961 160.014 600.37 150.28 614.779 130.812L619.582 125.945L614.779 121.078C547.536 38.3389 509.112 -68.7352 509.112 -180.676C509.112 -302.351 552.339 -419.16 629.188 -501.899C701.234 -419.16 749.265 -307.219 749.265 -185.543C768.477 -180.676 792.492 -175.809 811.705 -170.942C811.705 -175.809 811.705 -175.809 811.705 -180.676C806.902 -346.155 734.856 -492.165 624.385 -594.372Z" fill="white"/>
<path fill-rule="evenodd" clip-rule="evenodd" d="M518.738 -170.942C658.027 -195.277 802.119 -170.942 936.604 -93.0696C1119.12 14.0045 1229.59 198.951 1244 398.498C1066.29 481.237 854.952 476.37 672.436 369.296C662.83 364.429 648.421 354.695 638.815 349.828C658.027 335.227 672.436 320.626 691.648 306.025C696.451 310.892 701.254 310.892 706.058 315.759C854.952 403.365 1027.86 413.099 1176.76 359.562C1147.94 198.951 1056.68 52.9406 907.786 -34.6655C787.71 -102.804 653.224 -127.139 528.344 -102.804C523.541 -127.139 518.738 -151.474 518.738 -170.942ZM1157.55 344.961C1128.73 194.084 1037.47 57.8076 898.18 -24.9315C782.907 -93.0696 653.224 -112.538 533.147 -93.0696C537.951 -73.6016 542.754 -54.1335 547.557 -34.6655V-29.7985H552.36C658.027 -44.3996 768.497 -24.9315 864.559 28.6055C970.226 91.8766 1042.27 189.217 1080.7 296.291C970.226 320.626 854.952 301.158 749.285 242.754C734.876 257.355 720.467 276.823 706.058 291.424C710.861 291.424 710.861 296.291 715.664 296.291C850.149 379.03 1013.45 393.631 1157.55 344.961Z" fill="white"/>
<path fill-rule="evenodd" clip-rule="evenodd" d="M845.339 43.2061C797.308 174.615 701.247 291.423 571.564 369.295C389.048 476.369 177.713 476.369 0 393.63C19.2122 194.083 129.683 9.13711 312.199 -97.937C321.805 -102.804 336.214 -112.538 345.82 -117.405C345.82 -93.07 350.623 -73.602 355.426 -49.2669C350.623 -44.3999 345.82 -44.3999 341.017 -39.5329C192.122 48.0731 96.0612 194.083 72.0459 354.694C220.941 408.231 393.851 398.497 542.746 310.891C662.822 242.753 744.474 135.679 787.702 14.0041C806.914 23.7381 826.126 33.4721 845.339 43.2061ZM86.4551 344.96C230.547 393.63 389.048 383.896 533.14 301.157C648.413 233.019 730.065 130.812 773.293 9.13709C754.08 4.27009 734.868 -0.596924 715.656 -5.46393H710.853V-0.596909C672.428 96.7432 600.382 184.349 504.321 242.753C398.654 306.024 278.577 320.625 168.107 296.29C201.729 189.216 273.774 91.8762 379.442 33.4721C374.639 14.0041 365.033 -10.3309 360.229 -29.799C355.426 -29.799 355.426 -24.9319 350.623 -24.9319C211.335 57.8071 120.076 194.083 86.4551 344.96Z" fill="white"/>
</g>
<defs>
<clipPath id="clip0">
<rect width="1244" height="172" fill="white"/>
</clipPath>
</defs>
</svg>
