<?xml version="1.0" encoding="utf-8"?><svg viewBox="0 0 17 16" xmlns="http://www.w3.org/2000/svg" xmlns:xlink="http://www.w3.org/1999/xlink"><style>:root>svg{display:none}:root>svg:target{display:block}</style><svg viewBox="0 0 9 9" id="ic_close" xmlns="http://www.w3.org/2000/svg"><path d="M5.325 4.507l3.504-3.504a.582.582 0 1 0-.825-.825L4.5 3.683.996.178a.582.582 0 1 0-.825.825l3.504 3.504L.171 8.012a.582.582 0 1 0 .825.824L4.5 5.332l3.504 3.504a.581.581 0 0 0 .825 0 .582.582 0 0 0 0-.824L5.325 4.507z"/></svg><svg viewBox="0 0 13 9" id="ic_email" xmlns="http://www.w3.org/2000/svg"><path d="M6.124 6.042c.123.074.26.102.383.102s.261-.028.384-.102L13 2.538v4.66C13 8.191 12.14 9 11.082 9H1.918C.86 9 0 8.192 0 7.197V2.538l6.124 3.504z"/><path d="M1.918 0h9.164c.905 0 1.672.606 1.858 1.414L6.495 5.107.063 1.414C.246.606 1.013 0 1.918 0z"/></svg><svg viewBox="0 0 9 15" id="ic_facebook" xmlns="http://www.w3.org/2000/svg"><path d="M7.85 8.438l.4-2.715h-2.5V3.96c0-.742.35-1.466 1.47-1.466h1.136V.183S7.325 0 6.338 0C4.28 0 2.933 1.3 2.933 3.654v2.069H.643v2.715h2.29V15H5.75V8.437h2.1z"/></svg><svg viewBox="0 0 14 15" id="ic_instagram" xmlns="http://www.w3.org/2000/svg"><path d="M7.003 4.406a3.585 3.585 0 0 0-3.59 3.59 3.585 3.585 0 0 0 3.59 3.591 3.585 3.585 0 0 0 3.59-3.59 3.585 3.585 0 0 0-3.59-3.59zm0 5.925A2.339 2.339 0 0 1 4.67 7.997a2.337 2.337 0 0 1 2.334-2.335 2.337 2.337 0 0 1 2.335 2.335 2.339 2.339 0 0 1-2.335 2.334zm4.575-6.072a.836.836 0 0 1-.837.838.838.838 0 1 1 .838-.837zm2.378.85c-.053-1.122-.31-2.115-1.131-2.934-.819-.819-1.813-1.075-2.934-1.131-1.157-.066-4.622-.066-5.778 0-1.12.053-2.113.31-2.935 1.128C.356 2.99.103 3.984.047 5.106c-.066 1.156-.066 4.622 0 5.778C.1 12.006.357 13 1.178 13.82c.822.818 1.813 1.075 2.935 1.131 1.156.066 4.621.066 5.778 0 1.121-.053 2.115-.31 2.934-1.131.819-.819 1.075-1.813 1.131-2.935.066-1.156.066-4.618 0-5.775zm-1.493 7.016a2.363 2.363 0 0 1-1.332 1.331c-.922.366-3.11.282-4.128.282-1.019 0-3.21.08-4.128-.282a2.363 2.363 0 0 1-1.331-1.331c-.366-.922-.281-3.11-.281-4.128 0-1.019-.082-3.21.28-4.128a2.363 2.363 0 0 1 1.332-1.332c.922-.365 3.11-.28 4.128-.28 1.019 0 3.21-.082 4.128.28a2.363 2.363 0 0 1 1.332 1.332c.365.922.28 3.11.28 4.128 0 1.019.085 3.21-.28 4.128z"/></svg><svg viewBox="0 0 9 9" id="ic_link_arrow" xmlns="http://www.w3.org/2000/svg"><path d="M7.928.793H2.457a.605.605 0 0 0 0 1.21h4.012L1.163 7.307a.605.605 0 0 0 .855.855l5.305-5.306V6.87a.604.604 0 1 0 1.21 0V1.398a.604.604 0 0 0-.605-.605z"/></svg><svg viewBox="0 0 16 16" id="ic_pdf" xmlns="http://www.w3.org/2000/svg"><path d="M4.659 8.198c0-.43-.3-.688-.827-.688-.216 0-.361.021-.438.042v1.383c.09.02.202.028.354.028.563 0 .911-.285.911-.765zM7.927 7.524c-.237 0-.39.021-.48.042v3.065c.09.021.236.021.368.021.96.007 1.585-.521 1.585-1.64.007-.974-.563-1.488-1.473-1.488z"/><path d="M14.188 5.723h-.384V3.87c0-.011-.002-.023-.004-.035a.308.308 0 0 0-.074-.203L10.641.107s-.002 0-.002-.002a.31.31 0 0 0-.145-.09c-.006-.002-.011-.005-.017-.006A.313.313 0 0 0 10.405 0H2.823a.628.628 0 0 0-.627.627v5.096h-.384a.897.897 0 0 0-.897.897v4.663c0 .495.402.897.897.897h.384v3.193c0 .345.281.627.627.627h10.353a.628.628 0 0 0 .628-.627V12.18h.384a.897.897 0 0 0 .897-.897V6.62a.897.897 0 0 0-.897-.897zM2.823.628h7.268v3.21c0 .173.14.314.314.314h2.771v1.571H2.823V.628zm7.703 8.349c0 .897-.327 1.515-.78 1.897-.492.41-1.243.605-2.16.605-.55 0-.938-.035-1.203-.07V6.809c.39-.062.897-.097 1.432-.097.89 0 1.467.16 1.919.5.486.362.792.938.792 1.766zM2.344 11.43V6.808a8.708 8.708 0 0 1 1.432-.097c.653 0 1.12.125 1.432.375.299.237.5.626.5 1.085 0 .459-.153.848-.43 1.112-.362.34-.897.493-1.523.493-.139 0-.264-.007-.361-.02v1.675h-1.05zm10.832 3.772H2.823V12.18h10.353v3.023zm.91-7.589h-1.801v1.07h1.682v.863h-1.682v1.884h-1.063V6.746h2.864v.868z"/></svg><svg viewBox="0 0 13 13" id="ic_phone" xmlns="http://www.w3.org/2000/svg"><path d="M12.657 9.542L10.84 7.727c-.65-.648-1.752-.39-2.014.453-.195.583-.844.906-1.427.777-1.299-.324-3.051-2.01-3.376-3.369-.195-.582.195-1.23.779-1.425.844-.258 1.103-1.361.454-2.01L3.436.34c-.52-.453-1.298-.453-1.752 0L.45 1.57C-.78 2.867.583 6.303 3.634 9.348c3.051 3.045 6.492 4.47 7.79 3.174l1.233-1.23c.454-.519.454-1.296 0-1.749z"/></svg><svg viewBox="0 0 12 10" id="ic_reaply" xmlns="http://www.w3.org/2000/svg"><path d="M8.331 2.157l3.385 3.44c.207.209.207.55 0 .759L8.331 9.795a.523.523 0 0 1-.748 0 .543.543 0 0 1 0-.76l2.482-2.522H0V5.44h10.065L7.583 2.917a.543.543 0 0 1 0-.76.523.523 0 0 1 .748 0z"/><path d="M0 .5a.5.5 0 0 1 1 0V6H0V.5z"/></svg><svg fill="none" viewBox="0 0 13 15" id="ic_search" xmlns="http://www.w3.org/2000/svg"><path d="M11.526 13.86h0a.781.781 0 0 0 1.11.022.785.785 0 0 0 .02-1.11l-.071.069.072-.07-3.032-3.153a5.331 5.331 0 0 0 1.197-3.37C10.822 3.3 8.422.9 5.473.9 2.524.9.125 3.3.125 6.249c0 2.95 2.399 5.349 5.348 5.349a5.29 5.29 0 0 0 2.994-.92l3.059 3.181zM5.473 2.47a3.784 3.784 0 0 1 3.78 3.779 3.784 3.784 0 0 1-3.78 3.78 3.784 3.784 0 0 1-3.78-3.78 3.784 3.784 0 0 1 3.78-3.78z" fill="currentColor" stroke="currentColor" stroke-width=".2"/></svg><svg viewBox="0 0 14 8" id="ic_slider_arrow" xmlns="http://www.w3.org/2000/svg"><path d="M.88 4.404l3.385 3.439c.206.21.541.21.748 0a.543.543 0 0 0 0-.76L2.53 4.56h10.065c.292 0 .529-.24.529-.537a.533.533 0 0 0-.529-.537H2.531L5.013.965a.543.543 0 0 0 0-.76.523.523 0 0 0-.748 0L.88 3.644a.543.543 0 0 0 0 .76z"/></svg><svg viewBox="0 0 15 13" id="ic_twitter" xmlns="http://www.w3.org/2000/svg"><path d="M13.458 3.445c.01.133.01.266.01.4 0 4.064-3.094 8.746-8.747 8.746A8.687 8.687 0 0 1 0 11.211c.247.029.485.038.742.038 1.438 0 2.76-.485 3.817-1.313a3.08 3.08 0 0 1-2.874-2.132c.19.028.38.047.58.047.276 0 .552-.038.81-.104A3.075 3.075 0 0 1 .608 4.73v-.038c.41.228.885.37 1.39.39a3.072 3.072 0 0 1-1.37-2.56c0-.572.151-1.095.418-1.552a8.738 8.738 0 0 0 6.339 3.217 3.47 3.47 0 0 1-.076-.704A3.073 3.073 0 0 1 10.384.409c.885 0 1.684.37 2.246.97a6.053 6.053 0 0 0 1.951-.742 3.066 3.066 0 0 1-1.351 1.694A6.162 6.162 0 0 0 15 1.855a6.608 6.608 0 0 1-1.542 1.59z"/></svg><svg viewBox="0 0 17 11" id="ic_vkontakte" xmlns="http://www.w3.org/2000/svg"><path d="M16.613 1.178c.116-.39 0-.678-.562-.678h-1.859c-.473 0-.691.247-.808.522 0 0-.947 2.284-2.285 3.765-.432.428-.63.566-.868.566-.116 0-.296-.138-.296-.528V1.178C9.935.709 9.802.5 9.41.5H6.488c-.296 0-.473.219-.473.422 0 .443.67.547.739 1.797V5.43c0 .594-.108.703-.344.703-.632 0-2.165-2.294-3.074-4.918C3.153.706 2.973.5 2.496.5H.637C.107.5 0 .747 0 1.022c0 .487.631 2.91 2.938 6.11C4.475 9.315 6.64 10.5 8.61 10.5c1.184 0 1.329-.263 1.329-.716 0-2.087-.107-2.284.486-2.284.274 0 .748.137 1.852 1.19 1.263 1.25 1.471 1.81 2.178 1.81h1.859c.53 0 .798-.263.644-.781-.354-1.091-2.743-3.335-2.85-3.485-.275-.35-.196-.506 0-.819.003-.003 2.272-3.165 2.506-4.237z"/></svg></svg>