<svg width="39" height="46" viewBox="0 0 39 46" fill="none" xmlns="http://www.w3.org/2000/svg">
<path fill-rule="evenodd" clip-rule="evenodd" d="M19.2344 16.2091C19.2344 16.2091 19.2742 15.6679 19.1415 15.4699C19.0087 15.2719 18.5308 14.4799 18.4645 14.3215C18.3981 14.1763 17.7211 13.0544 17.4822 12.8168C17.2432 12.5792 16.553 12.0644 16.3804 12.038C16.2875 12.0248 15.9025 10.9293 14.9335 10.9557C14.6813 10.9557 15.0662 11.2592 15.1592 11.4572C15.2919 11.7344 15.345 11.9456 15.2919 11.9324C15.0397 11.906 14.814 11.8928 14.7609 11.8928C14.7211 11.8928 14.6547 11.8928 14.5751 11.906C14.2963 11.6288 13.699 11.048 13.5795 10.9689C13.4202 10.8765 12.1061 9.4773 12.1061 9.4773L11.7211 9.5433C11.7211 9.5433 11.5618 9.86009 11.6547 10.1769C11.7211 10.3881 12.0131 10.8105 12.1857 11.0612C12.1857 11.0876 12.1857 11.114 12.1857 11.1404C12.3184 11.4704 12.5043 11.576 12.5707 11.9852C12.5441 11.972 12.5176 11.9456 12.491 11.9324C12.4114 11.8664 12.2388 11.7608 12.1592 11.642C11.9999 11.4176 11.2963 10.9161 11.3229 10.9425C11.3494 10.9689 11.2565 11.3516 11.2565 11.708C11.2565 12.0116 11.5884 12.8036 11.7078 13.0676C11.6016 13.16 11.4954 13.2656 11.4025 13.358L11.1503 13.1072L11.0308 13.9256C10.8317 14.1368 10.7653 14.2819 10.6193 14.5195C10.5131 14.3743 10.168 14.15 9.91579 13.8332C8.88039 12.6716 8.48216 11.1668 8.03083 9.89968C7.79189 9.23971 7.07508 8.64572 6.74322 8.38173C6.41136 8.11774 6.5972 8.61933 6.5972 8.61933C6.5972 8.61933 6.91579 9.21331 7.15473 9.4509C7.79189 10.2033 7.91136 12.2888 8.58835 13.4636C8.94676 14.0972 9.98216 15.0871 10.1813 15.2983C10.1415 15.3907 10.1016 15.4435 10.0751 15.5491C8.90694 14.5063 8.2565 14.4007 7.97774 14.3479C7.53968 14.2819 7.24765 14.3743 7.64588 14.5063C8.98659 14.9419 9.71667 16.3939 9.82287 17.0275C9.76977 18.3474 9.58393 18.4794 9.41136 18.9018C9.2388 19.3374 8.30959 20.4989 8.19012 21.3833C8.08393 22.2677 8.24322 23.2445 8.2565 23.7196C8.28304 24.1948 8.49543 25.528 8.40251 26.2276C8.30959 26.9139 8.16358 27.5211 8.0972 27.9039C8.03083 28.2867 7.91136 28.9203 7.87154 29.1183C7.76535 29.5935 7.38039 29.8442 7.2211 30.4118C7.07508 30.9794 5.93349 33.3817 5.89366 33.5797C5.40251 34.8469 4.67243 34.0681 3.98216 34.3981C3.45119 34.4641 3.19897 35.4277 3.19897 35.6653C3.19897 35.9161 3.35827 36.0349 3.84942 36.0349C4.34057 36.0349 6.62375 36.0349 6.62375 36.0349C6.62375 36.0349 7.04853 35.8633 7.46004 35.2561C7.71225 34.8865 7.99101 34.1077 8.08393 33.8701C8.16358 33.6193 8.49543 32.603 8.82729 32.1938C9.15915 31.7846 9.76977 31.3358 9.76977 31.3358C9.76977 31.3358 9.92906 31.6658 10.022 32.075C10.1016 32.4842 10.4335 33.5533 10.6857 33.7117C10.9379 33.8701 11.3096 34.1209 11.668 34.1605C12.0397 34.2001 12.6105 34.1605 12.6503 33.9493C12.6901 33.7381 12.7299 33.2497 12.7299 33.2497C12.7299 33.2497 12.3583 32.7218 12.1592 32.1806C11.9468 31.6526 11.5884 31.151 11.7476 30.623C11.9069 30.095 11.9999 29.9366 12.1592 29.8574C12.3184 29.7783 13.0087 29.8442 13.4733 29.8442C14.0043 29.8047 15.6503 29.3955 15.9423 29.1051C16.2344 28.8147 17.137 28.7355 17.5087 27.8775C17.8804 27.0195 19.0751 25.2112 19.3671 25.132C19.6592 25.0528 20.8937 24.8812 21.1724 25.0132C21.4645 25.132 22.3273 25.7524 22.9777 26.5312C23.6415 27.3099 24.4246 28.3263 25.1149 28.6563C25.8184 28.9863 26.9202 29.963 27.8361 30.3722C28.7388 30.7814 29.6415 31.1114 29.8937 31.5602C30.3184 32.339 30.8627 34.8601 29.4556 34.6885C28.6591 34.5961 26.9866 34.3849 27.1326 36.0349L32.3627 36.0217C32.3627 36.0217 32.9866 35.1241 33.1459 34.7545C33.3052 34.3849 33.345 33.8569 33.345 33.8569L33.7565 34.0153C33.7565 34.0153 34.0884 34.6357 34.699 35.0845C35.3229 35.5333 36.053 35.8633 36.5972 35.8633C37.1282 35.8633 37.991 36.0217 38.2034 35.7445C38.4158 35.4541 38.7344 35.0449 38.8273 34.7677C38.9069 34.4773 39.0795 33.9493 38.8671 33.7381C38.668 33.5401 38.7078 33.4477 38.2963 33.4477C37.8848 33.4477 37.5928 33.4477 37.3937 33.8173C37.1813 34.1869 36.9423 34.6357 36.9423 34.6357C36.9423 34.6357 36.4114 35.1637 35.8273 34.5565C35.2565 33.9361 34.2609 32.5502 34.022 31.811C33.7698 31.0718 32.9866 28.4583 32.9866 28.4583C32.9866 28.4583 32.0043 25.594 31.3804 24.6568C30.7565 23.7196 30.3052 22.9805 29.9866 22.8617C29.6547 22.7429 29.283 22.6505 28.7919 22.6505C28.3007 22.6505 28.0087 22.6901 27.637 22.3205C27.2653 21.9509 26.6945 21.1721 26.3229 20.9741C26.0441 20.8157 25.4999 20.7761 25.2609 20.7761C25.2476 20.6969 25.2344 20.6045 25.2211 20.4989C25.168 20.103 25.3937 20.2218 25.6724 20.103C25.9512 19.9842 26.4689 19.6542 27.0795 19.0338C27.7034 18.4134 27.876 18.0834 28.1547 17.5686C28.4335 17.0671 28.2742 17.0671 28.1016 16.7767C27.9291 16.4995 27.876 16.8295 27.5972 17.2255C27.3184 17.6214 26.7476 17.727 26.4158 18.0174C26.0707 18.2946 25.845 18.189 25.46 18.2418C25.0618 18.2946 24.9556 17.9646 25.2875 17.9646C25.6326 17.9646 26.3096 17.463 27.0928 17.0671C27.8892 16.6711 28.4468 15.6019 28.4468 15.2719C28.4468 14.9287 28.4999 14.7703 28.4999 14.3743C28.4999 13.9784 28.2211 14.4271 27.9291 14.7703C27.6503 15.1135 27.1326 15.2719 26.9069 15.5623C26.6813 15.8395 26.0574 16.2355 25.6061 16.4599C25.1547 16.6843 24.4777 16.4599 24.4777 16.4599C24.4777 16.4599 25.2078 15.9583 25.553 15.8395C25.8981 15.7207 27.3583 14.4403 27.7565 13.8728C28.1547 13.3052 27.9822 13.4768 28.2078 13.0808C28.4335 12.6848 28.0884 12.0644 28.0884 12.0644C28.0884 12.0644 27.8096 12.236 27.5839 12.5132C27.3583 12.7904 27.0131 13.2392 26.4556 13.5824C25.8848 13.9256 25.4999 14.0312 25.4999 14.0312C25.4999 14.0312 25.0485 14.2027 25.0485 13.8068C25.0485 13.4108 26.1238 12.962 26.7476 12.632C27.3715 12.2888 27.4777 11.7872 27.5441 11.1668C27.5972 10.5465 27.5972 10.3749 27.5441 9.99208C27.491 9.59609 27.4246 9.99208 27.1459 10.3353C26.8671 10.6785 26.4158 11.0084 25.9645 11.4044C25.5131 11.8004 24.491 12.302 23.8671 12.8036C23.2432 13.3052 22.6857 14.2687 22.46 14.8891C22.2344 15.5095 22.1813 15.8395 22.0618 16.3543C21.9423 16.8559 21.783 17.595 21.6105 18.0438C21.4645 18.4134 21.0131 18.8358 20.8671 18.9546C20.8406 18.9414 20.814 18.9414 20.814 18.9414C20.814 18.9414 20.668 18.9414 20.4556 18.9282C20.5087 18.783 20.5618 18.6114 20.5884 18.3738C20.6415 17.6478 21.3184 16.8031 21.5441 16.3543C21.7698 15.9055 21.6636 15.6283 21.6636 15.6283C21.6636 15.6283 21.2122 16.0243 20.9335 16.4203C20.6547 16.8163 20.3096 17.4366 20.0308 17.7666C19.7521 18.1098 19.4069 18.387 19.1813 18.9414V18.9546C19.1547 18.9546 19.1282 18.9546 19.1016 18.9546C19.1547 18.9282 19.168 18.9018 19.1282 18.8754C18.7698 18.717 18.7299 17.859 18.7299 17.7138C18.9158 17.4366 19.0485 17.1331 19.0485 17.1331L19.2344 16.2091ZM10.2875 28.8147C10.2875 28.8147 10.4335 27.8115 10.8052 27.5079C11.1769 27.1911 11.4954 26.8479 11.9468 26.7159C12.4114 26.5708 12.7432 26.3992 13.2344 26.6632C13.7255 26.9139 13.7255 27.2307 13.7255 27.2307C13.7255 27.2307 13.4733 27.7191 13.0087 27.9963C12.5441 28.2867 11.7476 28.2867 11.4954 28.4847C11.2432 28.6827 10.9512 28.9995 10.6326 29.0259C10.314 29.0391 10.2875 28.8147 10.2875 28.8147ZM28.6193 24.3796C28.4733 24.5512 28.5131 25.2244 28.9379 26.0692C29.3627 26.9139 29.4291 27.2307 29.7875 27.6795C30.1459 28.1415 30.637 28.5639 30.7034 28.7355C30.7698 28.9071 30.9556 29.3031 30.9556 29.3031C30.9556 29.3031 31.6591 29.5143 31.9512 29.6859C32.2299 29.8574 32.4423 30.1082 32.4158 29.8574C32.376 29.6067 31.845 28.2075 31.6326 27.7191C31.4202 27.2307 30.8494 26.0296 30.5043 25.4752C30.1592 24.9208 30.0397 24.5248 29.5884 24.3532C29.1238 24.1816 28.7653 24.208 28.6193 24.3796ZM27.9689 9.4245C29.8671 7.36537 30.6238 5.84741 30.7963 3.0227C30.8494 2.07233 31.022 1.33316 31.022 1.33316L31.2476 0.989968C31.2476 0.989968 31.6459 1.38596 31.6459 1.78194C31.6459 3.64308 31.2476 5.50422 30.5707 7.23337C30.0928 8.46093 27.9556 11.3912 27.9556 11.3912C28.168 10.5465 28.2875 9.75449 27.9689 9.4245ZM28.5397 11.5496C30.4379 9.59609 31.2875 6.77138 31.9379 4.18427C32.2299 3.0227 32.8007 0.963569 34.0353 0.422387L34.3804 0.593981C34.3804 0.593981 33.7565 1.16156 33.5839 1.61035C33.4114 2.05913 32.9069 3.35269 32.6813 4.47466C32.3229 6.283 31.6326 8.79092 30.7565 10.4277C30.1857 11.4968 28.6591 13.3448 28.6591 13.3448C28.8317 12.7112 28.8052 12.1172 28.5397 11.5496ZM28.8184 13.8068C28.699 13.8596 30.0131 12.6056 30.2919 12.1832C31.6326 10.1109 31.5264 9.4905 32.0972 7.85375C32.5353 6.59979 33.5043 5.93981 33.5043 5.93981L34.0087 5.82101L34.0618 6.1774C32.9468 7.28617 32.5353 8.50053 32.1901 9.71489C31.8715 10.8369 31.022 13.6352 29.6282 14.9287L28.7786 15.7075C29.0176 15.1927 29.3096 14.4007 28.8184 13.8068ZM28.5928 16.5523C28.2344 16.7107 29.6945 15.6283 29.9999 15.2587C31.7122 13.2128 31.4069 12.4208 32.376 11.1536C33.1061 10.2033 33.4512 9.91288 33.4512 9.91288C33.7167 9.88649 33.8494 10.1373 33.7299 10.2561C31.7919 12.236 32.1636 12.962 31.5264 14.5855C31.1282 15.6019 29.5087 17.3574 28.5264 18.0702C28.7388 18.0042 28.9645 16.4071 28.5928 16.5523ZM27.9423 19.0338C29.2167 18.7962 30.2521 17.397 31.4866 16.5655C31.9512 16.2487 32.6149 15.9979 32.6149 15.9979C32.6149 15.9979 31.8184 16.8427 31.2609 17.5158C29.9468 19.0866 28.6592 20.3801 26.4556 20.3801C26.7742 20.2482 27.9158 19.3902 27.9423 19.0338ZM10.4468 13.9124C10.4468 13.9124 9.2388 12.0776 8.89366 11.1536C8.11048 9.04171 8.03083 7.60296 7.08836 6.349C6.82287 6.00581 6.1857 4.84425 6.1857 4.84425V4.58025C6.1857 4.58025 6.94234 5.33263 7.18128 5.62302C9.02641 7.84055 9.45119 11.6816 10.9114 12.4736C10.8317 12.5528 10.4999 12.896 10.4999 12.896L10.4468 13.9124ZM10.7919 11.9324C10.7919 11.9324 9.55738 9.68849 9.22552 8.94932C7.59278 5.30623 8.00428 3.36589 6.67685 0.857973C6.38481 0.30359 6.31844 0 6.31844 0C6.31844 0 7.28747 0.910771 7.65915 1.71595C8.49543 3.53749 9.15915 8.10454 11.0441 10.4013L10.7653 10.6917L10.7919 11.9324ZM11.1503 9.88649C9.41136 7.10137 8.64145 3.94667 8.65473 0.884372C8.65473 0.884372 8.78747 0.857973 8.81402 1.10876C8.98659 2.45512 9.53083 5.14784 11.5618 8.71172L11.2167 8.80412L11.1503 9.88649ZM3.43791 35.4673C3.43791 35.4673 3.99543 34.9129 4.51313 35.0449C4.88482 35.1373 5.36269 35.0449 5.62818 34.8865C5.90694 34.7281 6.72995 33.1573 6.88924 32.5766C7.04853 31.9958 8.08393 29.9102 8.08393 29.9102C8.08393 29.9102 8.32287 29.7255 8.52198 29.2899C8.7211 28.8675 8.96004 28.1415 9.15915 27.7455C9.35827 27.3627 9.82287 25.8052 9.82287 25.3432C9.82287 24.8812 9.86269 24.142 9.86269 24.142L10.9512 25.0396C10.9512 25.0396 13.8052 22.6769 13.991 22.5581C14.1901 22.4393 13.7919 23.1389 13.991 23.7196C14.1901 24.3004 14.5751 24.6172 14.5751 24.9208C14.5751 25.2376 14.5353 25.858 14.3361 26.1616C14.137 26.4784 13.8715 26.8611 14.2167 27.0195C14.5618 27.1779 14.8406 27.1779 15.0397 26.9403C15.2388 26.7028 15.6636 26.4388 15.7034 26.1616C15.7432 25.8844 16.022 25.2244 16.3671 25.1188C16.7122 25 16.7919 25 17.3494 24.8416C17.8937 24.6832 17.7742 24.6832 18.0131 24.34C18.2521 23.9968 18.2122 23.7988 18.637 23.7988C19.0618 23.7988 19.5795 23.7988 20.0043 23.9968C20.4291 24.1948 20.3494 24.4588 20.8671 24.3796C21.3715 24.3004 21.876 24.1816 22.1945 24.0364C22.5131 23.878 23.1768 23.9572 23.5618 24.2344C23.9468 24.5116 24.5043 25.3168 24.9689 25.5544C25.4335 25.792 26.0972 26.1352 26.4158 26.3332C26.7344 26.5312 27.3981 26.65 27.8627 27.2307C28.3273 27.8115 28.5662 27.8907 28.9114 28.2339C29.2565 28.5771 29.96 28.8543 29.96 28.8543C29.96 28.8543 29.7609 27.9567 29.4954 27.6135C29.2167 27.2703 28.4468 26.0956 28.4069 25.7524C28.3671 25.4092 28.022 24.7492 28.168 24.274C28.3273 23.812 28.4069 23.6536 28.7521 23.6932C29.0972 23.7328 29.6547 23.9704 29.9999 24.2344C30.345 24.5116 30.783 25.0924 30.9025 24.8548C31.022 24.6172 31.0884 24.472 31.022 24.3928L30.8892 24.2344L30.783 24.076L30.6901 23.9308L30.5972 23.7856L30.5043 23.6536L30.4114 23.5349L30.3317 23.4293L30.2521 23.3237L30.1724 23.2313L30.1061 23.1521L30.0397 23.0861L29.9866 23.0333L29.9335 23.0069L29.8937 22.9805L29.7742 22.9409L29.6547 22.9013L29.522 22.8749L29.3892 22.8485L29.2432 22.8221L29.0972 22.8089L28.9379 22.7957H28.7653H28.5928H28.4335L28.2742 22.7825L28.1149 22.7561L27.9556 22.7165L27.7963 22.6505L27.637 22.5449L27.491 22.4129L27.3317 22.2545L27.1724 22.0697L26.9999 21.8717L26.8273 21.6737L26.6547 21.4889L26.4954 21.3173L26.3494 21.1853L26.2299 21.0929L26.0972 21.0401L25.9246 21.0005L25.7388 20.9609L25.553 20.9345L25.3804 20.9213H25.3538L25.4202 21.1325L25.1547 21.1589L25.0485 21.1721L24.8892 21.1853H24.7034H24.5043L24.3052 21.1721L24.1193 21.1325L23.96 21.0665L23.814 20.9477L23.6547 20.7893L23.4822 20.6045L23.2963 20.3934L23.1105 20.1822L22.9379 19.9974L22.7919 19.839L22.6857 19.7466L22.6326 19.7202L22.5397 19.6806L22.4202 19.6278L22.2875 19.575L22.1415 19.5222L21.9822 19.4694L21.8096 19.4166L21.637 19.3638L21.4645 19.311L21.3052 19.2582L21.1591 19.2186L21.0264 19.179L20.9202 19.1526L20.8406 19.1262L20.7875 19.113H20.7476H20.6813H20.5884H20.4689H20.3892C20.3229 19.2846 20.3229 19.4166 20.522 19.6146C20.9202 20.0106 21.0264 20.1162 21.5441 20.1162C22.0618 20.1162 22.5662 20.5121 22.7255 20.7893C22.8981 21.0665 22.9512 21.0665 22.9512 21.0665L19.4999 21.1853C19.4999 21.1853 19.1016 21.0665 18.9291 20.6837C18.783 20.3274 18.9025 19.6674 19.0884 19.1262L18.9556 19.1394L18.8361 19.1526L18.7299 19.1658L18.6105 19.179L18.491 19.1922L18.3583 19.2054L18.2255 19.2186L18.0928 19.2318L17.9468 19.245L17.8007 19.2582L17.6547 19.2714L17.5087 19.2846L17.3494 19.2978L17.1901 19.3242L17.0308 19.3506L16.8715 19.377L16.7122 19.4034L16.553 19.4298L16.3937 19.4562L16.2476 19.4958L16.1149 19.5354L15.9954 19.575L15.876 19.6146L15.7698 19.641L15.6636 19.6674L15.5574 19.6938L15.4512 19.707H15.345L15.2388 19.6938L15.1326 19.6674L15.0397 19.6278L14.9468 19.575L14.8538 19.509L14.7609 19.4166L14.6813 19.3242L14.6016 19.2318L14.522 19.1262L14.4423 19.0206L14.3627 18.915L14.2963 18.7962L14.2299 18.6774L14.1769 18.5586L14.1238 18.4398L14.0839 18.321L14.0574 18.2022L14.0441 18.0834V17.9646L14.0574 17.8458L14.0839 17.727L14.137 17.6214L14.2565 17.463L14.3892 17.331L14.5485 17.2123C15.5707 16.5523 16.3671 17.1199 17.2034 17.7666L17.3229 17.8458C17.6813 18.057 18.053 17.9514 18.3715 17.6478L18.4379 17.5686L18.5043 17.463L18.5707 17.3574L18.637 17.2519C18.8361 16.8823 18.5308 16.7371 18.783 16.1695L18.9689 15.9451L18.9556 15.8395L18.9423 15.7339L18.9158 15.6547L18.8892 15.5887L18.8361 15.4963L18.7432 15.3511L18.637 15.1795L18.5308 14.9947L17.3361 13.0676C16.5928 12.1436 15.6636 12.104 14.5485 12.17L14.4291 12.1832L14.3229 12.1964L14.2299 12.2096H14.1636L14.0574 12.2228L13.022 11.114H12.4777L12.5441 11.2064C12.8229 11.5496 12.8892 11.9324 12.8229 12.4604C12.8096 12.566 12.783 12.632 12.7299 12.7244C10.7388 13.8068 10.2742 15.7471 10.0884 17.7402C10.0485 18.057 10.0087 18.3606 9.91579 18.6642C9.54411 19.8654 8.45561 20.7761 8.42906 22.0697C8.41579 23.812 8.92021 25.0528 8.40251 27.3495L7.91136 29.4747C7.32729 30.3854 7.04853 31.4414 6.63703 32.4314C6.31844 33.1969 5.668 34.9789 4.75207 34.5829C4.02198 34.5565 3.76977 34.7149 3.43791 35.4673ZM16.7388 14.0576C16.7388 14.0576 17.3096 15.4303 17.3494 15.5887C17.376 15.7471 17.376 14.8891 17.376 14.8891L17.6282 14.8231L17.4954 14.4403L16.8848 14.0576H16.7388ZM32.5884 30.491C32.4689 30.425 33.0662 31.1774 33.1857 31.7714C33.3052 32.3654 33.3184 33.6457 33.3184 33.6457C33.6636 33.0913 33.6105 31.547 33.2919 31.1246C33.0662 30.821 32.7078 30.5438 32.5884 30.491Z" fill="#C2A876"/>
<path fill-rule="evenodd" clip-rule="evenodd" d="M0 36.906H38.9336V37.3548H0V36.906Z" fill="#C2A876"/>
<path fill-rule="evenodd" clip-rule="evenodd" d="M35.2168 39.4271V43.5322H35.3894C35.9336 43.5322 36.3717 43.0966 36.3717 42.5554V39.8231C36.3717 39.2819 35.9336 38.8463 35.3894 38.8463H30.7965C30.2522 38.8463 29.8142 39.2819 29.8142 39.8231V42.5554C29.8142 43.0966 30.2522 43.5322 30.7965 43.5322H30.9823V39.4271H35.2168ZM35.2168 44.245V45.7761H31.5266C31.2212 45.7761 30.969 45.6045 30.969 45.3801V44.2318H30.0398C28.6327 44.2318 27.4912 43.0834 27.4912 41.6974V40.6679C27.4912 39.2687 28.6327 38.1336 30.0398 38.1336H36.146C37.5531 38.1336 38.6947 39.2819 38.6947 40.6679V41.6974C38.6947 43.0966 37.5531 44.2318 36.146 44.2318H35.2168V44.245ZM0 38.1336H8.28319C8.54867 38.1336 8.85398 38.424 8.85398 38.7011V38.9651H6.55752V45.7761H2.86726C2.56195 45.7761 2.30973 45.6045 2.30973 45.3801V38.9519H0.570797C0.30531 38.9519 0 38.6615 0 38.3844V38.1336ZM13.4867 38.1336C13.8186 38.1336 14.2301 38.3316 14.3496 38.6483L17.0575 45.7761H14.5089C14.0708 45.7761 13.5796 45.4593 13.4336 45.0501L11.0708 38.8199L9.66372 42.4234H10.9779C11.4027 42.4234 11.8805 42.7138 12.0265 43.1098L13.0354 45.7629H8.34956C8.11062 45.7629 7.85841 45.4197 7.93805 45.1953L10.6991 38.1204C11.6283 38.1336 12.5575 38.1336 13.4867 38.1336ZM26.5752 45.7893H26.4823C26.1903 45.7893 25.8186 45.5253 25.8186 45.2349V39.3611L22.2876 45.2085C22.0885 45.5385 21.677 45.7893 21.292 45.7893H18.5841C18.3186 45.7893 18.0531 45.4593 18.0531 45.1953V38.1468H18.146C18.4381 38.1468 18.8097 38.4108 18.8097 38.7011V44.575L22.2611 38.8463C22.4867 38.4767 22.6593 38.1468 23.5354 38.1468H25.9779C26.2434 38.1468 26.5752 38.4372 26.5752 38.7011V45.7893Z" fill="#6A3020"/>
</svg>
